<?xml version="1.0" encoding="utf-8"?>
<!-- Generator: Adobe Illustrator 25.4.1, SVG Export Plug-In . SVG Version: 6.00 Build 0)  -->
<svg version="1.1" id="Layer_1" xmlns="http://www.w3.org/2000/svg" xmlns:xlink="http://www.w3.org/1999/xlink" x="0px" y="0px"
	 viewBox="0 0 176.84 51.14" style="enable-background:new 0 0 176.84 51.14;" xml:space="preserve">
<style type="text/css">
	.st0{fill:#FFCE09;}
	.st1{fill:#FFFFFF;}
</style>
<g>
	<g>
		<path class="st0" d="M0.84,40.88L11.06,7.12h9.23l10.22,33.75H22.5l-1.01-3.54H9.87l-1.01,3.54H0.84z M11.72,30.77h7.92
			l-2.48-8.81l-1.48-5.79l-1.48,5.79L11.72,30.77z"/>
		<path class="st0" d="M42.49,41.51c-1.88,0-3.72-0.29-5.54-0.86s-3.33-1.37-4.54-2.4l3.23-5.81c2.72,1.58,5.07,2.37,7.05,2.37
			c1.52,0,2.27-0.34,2.27-1.03c0-0.42-0.36-0.8-1.07-1.15s-1.87-0.77-3.48-1.27c-2.56-0.78-4.45-1.79-5.67-3.04
			s-1.83-2.82-1.83-4.75c0-1.22,0.26-2.3,0.77-3.23s1.22-1.68,2.12-2.24s1.91-0.97,3.05-1.24s2.36-0.41,3.67-0.41
			c3.25,0,6.31,0.66,9.19,1.99l-2.86,5.91c-0.67-0.36-1.57-0.68-2.68-0.96s-2.16-0.42-3.13-0.42c-1.78,0-2.67,0.33-2.67,0.98
			c0,0.33,0.28,0.63,0.84,0.9s1.45,0.59,2.67,0.95c2.88,0.86,5.01,1.95,6.4,3.26s2.09,3.02,2.09,5.11c0,1.66-0.47,3.05-1.42,4.18
			s-2.14,1.94-3.59,2.43S44.3,41.51,42.49,41.51z"/>
		<path class="st0" d="M68.58,41.48c-2.02,0-3.86-0.27-5.54-0.8s-3.14-1.32-4.38-2.36s-2.21-2.37-2.89-3.98s-1.03-3.46-1.03-5.52
			c0-1.61,0.23-3.09,0.68-4.45s1.07-2.52,1.85-3.48s1.7-1.78,2.77-2.45s2.2-1.17,3.42-1.5s2.48-0.49,3.8-0.49
			c1.64,0,3.19,0.25,4.64,0.75s2.75,1.23,3.88,2.19s2.03,2.21,2.7,3.74s1,3.26,1,5.18c0,0.64-0.05,1.45-0.14,2.44H62.27
			c0.36,1.47,1.11,2.56,2.25,3.27s2.49,1.07,4.05,1.07c2.66,0,5.38-0.84,8.18-2.53l1.85,6.35C75.47,40.62,72.12,41.48,68.58,41.48z
			 M62.53,26.06h9.4c-0.33-1.12-0.91-1.98-1.76-2.58s-1.82-0.89-2.93-0.89c-1,0-1.93,0.3-2.8,0.9S62.94,24.95,62.53,26.06z"/>
		<path class="st0" d="M92.11,41.51c-1.88,0-3.72-0.29-5.54-0.86s-3.33-1.37-4.54-2.4l3.23-5.81c2.72,1.58,5.07,2.37,7.05,2.37
			c1.52,0,2.27-0.34,2.27-1.03c0-0.42-0.36-0.8-1.07-1.15s-1.87-0.77-3.48-1.27c-2.56-0.78-4.45-1.79-5.67-3.04
			s-1.83-2.82-1.83-4.75c0-1.22,0.26-2.3,0.77-3.23s1.22-1.68,2.12-2.24s1.91-0.97,3.05-1.24s2.36-0.41,3.67-0.41
			c3.25,0,6.31,0.66,9.19,1.99l-2.86,5.91c-0.67-0.36-1.57-0.68-2.68-0.96s-2.16-0.42-3.13-0.42c-1.78,0-2.67,0.33-2.67,0.98
			c0,0.33,0.28,0.63,0.84,0.9s1.45,0.59,2.67,0.95c2.88,0.86,5.01,1.95,6.4,3.26s2.09,3.02,2.09,5.11c0,1.66-0.47,3.05-1.42,4.18
			S98.44,40.3,97,40.78S93.92,41.51,92.11,41.51z"/>
	</g>
	<g>
		<path class="st1" d="M115.99,41.51c-2.94,0-6.76-0.54-11.46-1.62V5.16h7.64v11.84c1.38-0.36,2.72-0.54,4.03-0.54
			c2.17,0,4.12,0.36,5.85,1.07s3.12,1.66,4.17,2.86s1.86,2.53,2.41,4.01s0.83,3.02,0.83,4.63s-0.28,3.15-0.84,4.62
			s-1.38,2.8-2.45,3.98s-2.48,2.13-4.24,2.84S118.19,41.51,115.99,41.51z M112.17,34.83c1.33,0.17,2.67,0.26,4.03,0.26
			c1.73,0,3.09-0.6,4.07-1.8s1.46-2.63,1.46-4.29c0-1.64-0.49-3.07-1.48-4.29s-2.37-1.83-4.15-1.83c-1.48,0-2.8,0.24-3.94,0.73
			V34.83z"/>
		<path class="st1" d="M146.37,41.48c-2.02,0-3.86-0.27-5.54-0.8s-3.14-1.32-4.38-2.36s-2.21-2.37-2.89-3.98s-1.03-3.46-1.03-5.52
			c0-1.61,0.23-3.09,0.68-4.45s1.07-2.52,1.85-3.48s1.7-1.78,2.77-2.45s2.2-1.17,3.42-1.5s2.48-0.49,3.8-0.49
			c1.64,0,3.19,0.25,4.64,0.75s2.75,1.23,3.88,2.19s2.03,2.21,2.7,3.74s1,3.26,1,5.18c0,0.64-0.05,1.45-0.14,2.44h-17.04
			c0.36,1.47,1.11,2.56,2.25,3.27s2.49,1.07,4.05,1.07c2.66,0,5.38-0.84,8.18-2.53l1.85,6.35
			C153.26,40.62,149.91,41.48,146.37,41.48z M140.32,26.06h9.4c-0.33-1.12-0.91-1.98-1.76-2.58s-1.82-0.89-2.93-0.89
			c-1,0-1.93,0.3-2.8,0.9S140.73,24.95,140.32,26.06z"/>
		<path class="st1" d="M175.83,41.27c-4.58,0-7.87-0.81-9.88-2.44s-3.01-4.41-3.01-8.37v-7.52l-4.01-1.2v-4.88h4.01V9.82h7.64v7.05
			h4.45v6.09h-4.45v7.73c0,1.44,0.33,2.45,1,3.05s1.82,0.89,3.48,0.89L175.83,41.27z"/>
	</g>
</g>
</svg>
